<?xml version="1.0" encoding="utf-8"?>
<!-- Generator: Adobe Illustrator 28.0.0, SVG Export Plug-In . SVG Version: 6.00 Build 0)  -->
<svg version="1.0" id="katman_1" xmlns="http://www.w3.org/2000/svg" xmlns:xlink="http://www.w3.org/1999/xlink" x="0px" y="0px"
	 viewBox="0 0 841.89 595.28" style="enable-background:new 0 0 841.89 595.28;" xml:space="preserve">
<style type="text/css">
	.st0{fill:#FFFFFF;}
	.st1{fill:#E73431;}
	.st2{fill:#182129;}
</style>
<path class="st0" d="M273.79,297.41c0,52.83-42.82,95.65-95.65,95.65c-52.83,0-95.65-42.82-95.65-95.65
	c0-52.83,42.82-95.65,95.65-95.65C230.97,201.76,273.79,244.59,273.79,297.41z"/>
<path class="st1" d="M178.14,201.76c-29.58,0-56.02,13.43-73.56,34.52c3.19,15.86,7.75,30.02,13.56,42.11
	c-1.96,5.1-3.4,10.29-4.15,15.18l-4.58,24.89c-8.8-10.69-17.38-24.81-24.26-43.43c-1.72,7.18-2.66,14.66-2.66,22.36
	c0,24.09,8.93,46.09,23.63,62.91l12.16-66.01c0.6-3.88,1.66-7.96,3.07-12.01c0.19-0.54,0.37-1.08,0.57-1.62
	c0.26-0.69,0.54-1.39,0.81-2.08c0.19-0.47,0.38-0.94,0.59-1.42c0.3-0.71,0.61-1.41,0.94-2.1c0.23-0.5,0.47-1,0.72-1.51
	c0.32-0.65,0.64-1.3,0.97-1.94c0.36-0.68,0.74-1.36,1.12-2.05c0.26-0.46,0.51-0.94,0.78-1.39c9.1-15.36,25.06-29.52,50.62-29.52
	c0.04,0,0.06,0,0.1,0c23.95,0.03,44.96,14.46,53.53,36.74c8.73,22.71,2.57,47.31-16.08,64.2c-17.42,15.76-44.93,18.74-70.08,7.57
	c-1.01-0.45-2.09-0.96-3.21-1.52l5.57-30.21c3.02,2.02,6.15,3.77,9.41,5.22c14.68,6.52,29.94,5.5,38.86-2.57
	c9.71-8.79,12.87-20.86,8.48-32.29c-3.37-8.76-12.1-18.14-26.51-18.15c-0.02,0-0.04,0-0.05,0c-25.82,0-31.06,28.07-31.57,31.27
	l-0.07,0.42l-15.05,81.72c13.73,7.63,29.53,11.99,46.36,11.99c52.83,0,95.65-42.82,95.65-95.65
	C273.79,244.59,230.97,201.76,178.14,201.76z"/>
<path class="st2" d="M441.56,257.88c-10.75-0.44-20.81,3.28-29.89,11.03c-9.03,7.72-14.58,17.12-16.49,27.95
	c-1.87,10.58,0.22,19.87,6.21,27.61c6.02,7.78,14.35,11.91,24.75,12.26c0.42,0.01,0.84,0.02,1.27,0.02
	c8.84-0.03,17.44-2.88,24.55-8.11l-0.54,3.09c-0.28,1.59,0.78,3.09,2.36,3.38c0.17,0.03,0.33,0.04,0.51,0.04h9.3
	c1.41,0,2.62-1.02,2.87-2.41l6.16-34.94c2.2-10.52,0.21-19.8-5.9-27.61C460.6,262.38,452.13,258.23,441.56,257.88z M447.19,314.55
	c-5.9,5.22-12.14,7.57-19.03,7.31c-5.75-0.06-11.13-2.88-14.45-7.58c-3.58-4.87-4.69-10.44-3.37-17.05
	c1.27-6.82,4.94-12.96,10.34-17.32c5.08-4.58,11.66-7.13,18.5-7.15c6.22,0,11,2.2,14.6,6.74c3.65,4.61,4.94,10.05,3.92,16.63
	C456.55,303.34,452.82,309.89,447.19,314.55z"/>
<path class="st2" d="M644.01,257.88c-10.74-0.44-20.81,3.28-29.89,11.03c-9.03,7.72-14.58,17.12-16.49,27.95
	c-1.87,10.58,0.22,19.87,6.21,27.61c6.02,7.78,14.35,11.91,24.75,12.26c0.42,0.01,0.84,0.02,1.27,0.02
	c8.84-0.03,17.44-2.88,24.55-8.11l-0.54,3.09c-0.28,1.59,0.78,3.09,2.36,3.38c0.17,0.03,0.33,0.04,0.51,0.04h9.3
	c1.41,0,2.62-1.02,2.87-2.41l6.16-34.94c2.2-10.52,0.21-19.8-5.9-27.61C663.04,262.38,654.57,258.23,644.01,257.88z M649.64,314.55
	c-5.9,5.22-12.15,7.57-19.03,7.31c-5.75-0.06-11.13-2.88-14.45-7.58c-3.58-4.87-4.69-10.44-3.37-17.05
	c1.27-6.82,4.94-12.96,10.34-17.32c5.08-4.58,11.66-7.13,18.5-7.15c6.22,0,11,2.2,14.6,6.74c3.65,4.61,4.94,10.05,3.92,16.63
	C659,303.34,655.26,309.89,649.64,314.55z"/>
<path class="st2" d="M752.48,270.2c-6.04-7.82-14.44-11.97-24.95-12.32c-10.65-0.33-20.69,3.4-29.76,11.15
	c-9.03,7.71-14.58,17.11-16.49,27.95c-1.86,10.58,0.22,19.87,6.19,27.61c6.01,7.79,14.41,11.87,24.92,12.13
	c0.45,0.01,0.91,0.02,1.36,0.02c10.17,0,19.73-3.75,28.46-11.17c9.08-7.72,14.63-17.04,16.52-27.7
	C760.59,287.29,758.49,277.98,752.48,270.2z M714.24,321.85c-5.76,0.04-11.17-2.75-14.48-7.46c-3.55-4.89-4.63-10.47-3.32-17.11
	c1.29-6.86,4.96-13.03,10.37-17.43c4.97-4.55,11.45-7.08,18.18-7.1c0.1,0,0.21,0,0.31,0c6.22,0,10.97,2.2,14.53,6.75
	c3.62,4.63,4.93,10.09,3.98,16.7c-1.1,7.06-4.54,13.09-10.51,18.41C727.38,319.86,721.17,322.21,714.24,321.85z"/>
<path class="st2" d="M357.22,258c-10.62-0.33-20.69,3.41-29.81,11.15c-9.07,7.71-14.63,17.04-16.51,27.69l-9.1,51.62
	c-0.28,1.59,0.78,3.09,2.36,3.38c0.17,0.03,0.33,0.04,0.51,0.04h9.05c1.41,0,2.62-1.02,2.87-2.41l3.76-21.33
	c5.67,5.43,12.95,8.36,21.74,8.71c10.67,0.35,20.69-3.41,29.76-11.15c9.03-7.72,14.58-17.12,16.49-27.95
	c1.86-10.58-0.22-19.87-6.19-27.61C376.14,262.36,367.75,258.27,357.22,258z M344.26,321.98c-6.33,0-11.15-2.21-14.76-6.76
	c-3.66-4.62-4.95-10.08-3.94-16.67c1.1-7.07,4.54-13.09,10.54-18.41c5.51-4.9,11.3-7.29,17.69-7.29c0.47,0,0.93,0.01,1.41,0.03
	c5.77-0.04,11.2,2.75,14.53,7.47c3.56,4.9,4.69,10.49,3.46,17.09c-1.36,6.84-5.07,12.99-10.49,17.38
	C357.01,319.63,350.99,321.98,344.26,321.98z"/>
<path class="st2" d="M562.47,258.49c-6.47,0.31-12.72,2.5-17.97,6.29l3.25-18.43c0.28-1.59-0.78-3.09-2.36-3.38
	c-0.17-0.03-0.33-0.04-0.51-0.04h-9.3c-1.41,0-2.62,1.02-2.87,2.41l-15.23,86.38c-0.28,1.59,0.78,3.09,2.36,3.38
	c0.17,0.03,0.33,0.04,0.51,0.04h9.3c1.41,0,2.62-1.01,2.87-2.41l7.29-41.35c0.84-5.14,3.58-9.78,7.68-12.99
	c3.99-3.38,9.05-5.25,14.28-5.29c4.56-0.31,8.99,1.61,11.9,5.15c3.03,3.54,4.22,8.3,3.21,12.84l-7.16,40.61
	c-0.28,1.59,0.78,3.09,2.36,3.38c0.17,0.03,0.33,0.04,0.51,0.04h9.3c1.41,0,2.62-1.02,2.87-2.41l6.99-39.63
	c1.73-9.83-0.3-18.25-6.04-25.02C579.93,261.26,572.11,258.01,562.47,258.49z"/>
<path class="st2" d="M502.02,273.98h13.7c1.41,0,2.62-1.02,2.87-2.41l1.53-8.69c0.28-1.59-0.78-3.09-2.36-3.38
	c-0.17-0.03-0.33-0.04-0.51-0.04h-12.67l2.31-13.11c0.28-1.59-0.78-3.09-2.36-3.38c-0.17-0.03-0.33-0.04-0.51-0.04h-9.3
	c-1.41,0-2.62,1.02-2.87,2.41l-2.49,14.12h-3.8c-1.41,0-2.62,1.02-2.87,2.41l-1.53,8.69c-0.28,1.59,0.78,3.09,2.36,3.38
	c0.17,0.03,0.33,0.04,0.51,0.04h2.77l-6.62,37.56c-1.33,7.55-0.19,13.54,3.39,17.8c4.05,4.83,11.15,7.27,21.11,7.27
	c1.41,0,2.62-1.02,2.87-2.41l1.36-7.71c0.28-1.59-0.78-3.09-2.36-3.38c-0.17-0.03-0.33-0.04-0.51-0.04c-4.52,0-7.64-0.99-9.27-2.93
	c-1.59-1.88-2.01-4.98-1.27-9.18L502.02,273.98z"/>
</svg>
